# xmcd
#
# Track frame offsets: 
#        150
#        14632
#        35860
#        55727
#        70994
#        88767
#        113967
#        131958
#        155114
#        170132
#        190861
#        209678
#
# Disc length: 3095 seconds
#
# Revision: 0
# Processed by: cddbd v1.5.2PL0 Copyright (c) Steve Scherf et al.
# Submitted via: ExactAudioCopy v0.99pb4
#
DISCID=c00c150c
DTITLE=Chicago Blues Harmonica Project - More Rare Gems
DYEAR=2009
DGENRE=Blues
TTITLE0=Shade Tree Mechanic
TTITLE1=Ooh Baby, Hold Me
TTITLE2=Kill That Mouse
TTITLE3=Can't Stand It No More
TTITLE4=Gangster of Love
TTITLE5=I've Got To Be With You Tonight
TTITLE6=Sunday Morning Blues
TTITLE7=Give Me Back That Wig
TTITLE8=Honest I Do
TTITLE9=Well You Know
TTITLE10=The 12 Year Old Boy
TTITLE11=Gone To Main Street
EXTD=
EXTT0=
EXTT1=
EXTT2=
EXTT3=
EXTT4=
EXTT5=
EXTT6=
EXTT7=
EXTT8=
EXTT9=
EXTT10=
EXTT11=
PLAYORDER=
